<svg xmlns="http://www.w3.org/2000/svg" width="412" height="915" viewBox="0 0 412 915">
  <rect width="412" height="915" fill="#0E1114"/>
  <rect x="16" y="24" width="380" height="52" rx="12" fill="#1D242B"/>
  <text x="32" y="58" fill="#E7EDF3" font-family="IBM Plex Sans" font-size="18">Filters</text>
  <text x="320" y="58" fill="#A7B3BF" font-family="IBM Plex Sans" font-size="12">Android</text>

  <rect x="16" y="92" width="380" height="140" rx="12" fill="#1D242B"/>
  <text x="32" y="120" fill="#A7B3BF" font-family="IBM Plex Sans" font-size="12">Type</text>
  <rect x="32" y="134" width="70" height="26" rx="13" fill="#151B20" stroke="#3FB8C5"/>
  <text x="50" y="152" fill="#3FB8C5" font-family="IBM Plex Sans" font-size="11">CCR</text>
  <rect x="110" y="134" width="70" height="26" rx="13" fill="#151B20"/>
  <text x="130" y="152" fill="#A7B3BF" font-family="IBM Plex Sans" font-size="11">OC</text>

  <text x="32" y="184" fill="#A7B3BF" font-family="IBM Plex Sans" font-size="12">Depth</text>
  <rect x="32" y="196" width="160" height="10" rx="5" fill="#151B20"/>
  <rect x="32" y="196" width="96" height="10" rx="5" fill="#3FB8C5"/>
  <text x="200" y="206" fill="#A7B3BF" font-family="IBM Plex Sans" font-size="11">> 60m</text>

  <rect x="16" y="248" width="380" height="140" rx="12" fill="#1D242B"/>
  <text x="32" y="276" fill="#A7B3BF" font-family="IBM Plex Sans" font-size="12">Tags</text>
  <rect x="32" y="292" width="72" height="24" rx="12" fill="#151B20" stroke="#3FB8C5"/>
  <text x="46" y="308" fill="#3FB8C5" font-family="IBM Plex Sans" font-size="11">Cave</text>
  <rect x="112" y="292" width="80" height="24" rx="12" fill="#151B20"/>
  <text x="126" y="308" fill="#A7B3BF" font-family="IBM Plex Sans" font-size="11">Wreck</text>
  <rect x="200" y="292" width="92" height="24" rx="12" fill="#151B20"/>
  <text x="214" y="308" fill="#A7B3BF" font-family="IBM Plex Sans" font-size="11">Training</text>

  <rect x="16" y="404" width="380" height="120" rx="12" fill="#1D242B"/>
  <text x="32" y="432" fill="#A7B3BF" font-family="IBM Plex Sans" font-size="12">Date Range</text>
  <rect x="32" y="446" width="140" height="28" rx="6" fill="#151B20"/>
  <text x="42" y="466" fill="#E7EDF3" font-family="IBM Plex Sans" font-size="11">2025-01-01</text>
  <rect x="184" y="446" width="140" height="28" rx="6" fill="#151B20"/>
  <text x="194" y="466" fill="#E7EDF3" font-family="IBM Plex Sans" font-size="11">2026-01-31</text>
</svg>
