<svg xmlns="http://www.w3.org/2000/svg" width="390" height="844" viewBox="0 0 390 844">
  <rect width="390" height="844" fill="#0E1114"/>
  <rect x="16" y="20" width="358" height="48" rx="10" fill="#1D242B"/>
  <text x="32" y="52" fill="#E7EDF3" font-family="IBM Plex Sans" font-size="18">Dives</text>
  <text x="320" y="52" fill="#A7B3BF" font-family="IBM Plex Sans" font-size="12">iOS</text>

  <rect x="16" y="80" width="358" height="36" rx="18" fill="#151B20" stroke="#3FB8C5"/>
  <text x="32" y="104" fill="#3FB8C5" font-family="IBM Plex Sans" font-size="12">CCR</text>
  <rect x="76" y="80" width="70" height="36" rx="18" fill="#151B20"/>
  <text x="94" y="104" fill="#A7B3BF" font-family="IBM Plex Sans" font-size="12">Deco</text>
  <rect x="152" y="80" width="70" height="36" rx="18" fill="#151B20"/>
  <text x="170" y="104" fill="#A7B3BF" font-family="IBM Plex Sans" font-size="12">>60m</text>

  <rect x="16" y="132" width="358" height="120" rx="10" fill="#1D242B"/>
  <text x="32" y="160" fill="#E7EDF3" font-family="IBM Plex Sans" font-size="14">Barkley Sound</text>
  <text x="32" y="182" fill="#A7B3BF" font-family="IBM Plex Sans" font-size="12">2026-01-02 · CCR · Max 62m · 84min</text>
  <rect x="32" y="196" width="56" height="22" rx="11" fill="#151B20" stroke="#3FB8C5"/>
  <text x="44" y="211" fill="#3FB8C5" font-family="IBM Plex Sans" font-size="11">CCR</text>
  <rect x="94" y="196" width="56" height="22" rx="11" fill="#151B20"/>
  <text x="108" y="211" fill="#A7B3BF" font-family="IBM Plex Sans" font-size="11">Deco</text>

  <rect x="16" y="264" width="358" height="120" rx="10" fill="#1D242B"/>
  <text x="32" y="292" fill="#E7EDF3" font-family="IBM Plex Sans" font-size="14">Tahoe</text>
  <text x="32" y="314" fill="#A7B3BF" font-family="IBM Plex Sans" font-size="12">2025-12-18 · OC · Max 51m · 42min</text>
  <rect x="32" y="328" width="72" height="22" rx="11" fill="#151B20"/>
  <text x="44" y="343" fill="#A7B3BF" font-family="IBM Plex Sans" font-size="11">Training</text>
</svg>
