<svg xmlns="http://www.w3.org/2000/svg" width="390" height="844" viewBox="0 0 390 844">
  <rect width="390" height="844" fill="#0E1114"/>
  <rect x="16" y="20" width="358" height="48" rx="10" fill="#1D242B"/>
  <text x="32" y="52" fill="#E7EDF3" font-family="IBM Plex Sans" font-size="18">Formula Builder</text>
  <text x="320" y="52" fill="#A7B3BF" font-family="IBM Plex Sans" font-size="12">iOS</text>

  <rect x="16" y="84" width="358" height="140" rx="12" fill="#1D242B"/>
  <text x="32" y="112" fill="#A7B3BF" font-family="IBM Plex Sans" font-size="12">Expression</text>
  <rect x="32" y="124" width="326" height="44" rx="8" fill="#151B20" stroke="#3FB8C5"/>
  <text x="44" y="152" fill="#E7EDF3" font-family="IBM Plex Mono" font-size="12">deco_time_min / bottom_time_min</text>
  <text x="32" y="184" fill="#A7B3BF" font-family="IBM Plex Sans" font-size="11">Scope: Dive</text>
  <text x="32" y="202" fill="#A7B3BF" font-family="IBM Plex Sans" font-size="11">Preview: 0.27</text>

  <rect x="16" y="236" width="358" height="140" rx="12" fill="#1D242B"/>
  <text x="32" y="264" fill="#A7B3BF" font-family="IBM Plex Sans" font-size="12">Variables</text>
  <text x="32" y="292" fill="#E7EDF3" font-family="IBM Plex Mono" font-size="11">max_depth_m · avg_depth_m · deco_time_min</text>
  <text x="32" y="312" fill="#E7EDF3" font-family="IBM Plex Mono" font-size="11">bottom_time_min · otu · cns_percent</text>

  <rect x="16" y="392" width="358" height="160" rx="12" fill="#1D242B"/>
  <text x="32" y="420" fill="#A7B3BF" font-family="IBM Plex Sans" font-size="12">Apply To</text>
  <rect x="32" y="436" width="140" height="28" rx="6" fill="#151B20" stroke="#3FB8C5"/>
  <text x="48" y="456" fill="#3FB8C5" font-family="IBM Plex Sans" font-size="11">All Dives</text>
  <rect x="180" y="436" width="178" height="28" rx="6" fill="#151B20"/>
  <text x="192" y="456" fill="#A7B3BF" font-family="IBM Plex Sans" font-size="11">Filter: is_ccr</text>
  <text x="32" y="486" fill="#A7B3BF" font-family="IBM Plex Sans" font-size="11">Preview: Barkley Sound · 0.27</text>

  <rect x="16" y="568" width="358" height="120" rx="12" fill="#1D242B"/>
  <text x="32" y="596" fill="#A7B3BF" font-family="IBM Plex Sans" font-size="12">Actions</text>
  <rect x="32" y="612" width="120" height="32" rx="6" fill="#151B20" stroke="#3FB8C5"/>
  <text x="52" y="634" fill="#3FB8C5" font-family="IBM Plex Sans" font-size="12">Validate</text>
  <rect x="160" y="612" width="120" height="32" rx="6" fill="#151B20"/>
  <text x="190" y="634" fill="#A7B3BF" font-family="IBM Plex Sans" font-size="12">Save</text>
</svg>
