<svg xmlns="http://www.w3.org/2000/svg" width="1280" height="800" viewBox="0 0 1280 800">
  <rect width="1280" height="800" fill="#0E1114"/>
  <rect x="40" y="40" width="1200" height="720" rx="8" fill="#151B20"/>
  <rect x="40" y="40" width="1200" height="64" rx="8" fill="#1D242B"/>
  <text x="72" y="80" fill="#E7EDF3" font-family="IBM Plex Sans" font-size="22">Formula Builder</text>
  <text x="1120" y="80" fill="#A7B3BF" font-family="IBM Plex Sans" font-size="14">macOS</text>

  <rect x="72" y="128" width="520" height="220" rx="6" fill="#1D242B"/>
  <text x="96" y="160" fill="#A7B3BF" font-family="IBM Plex Sans" font-size="12">Expression</text>
  <rect x="96" y="172" width="472" height="48" rx="6" fill="#151B20" stroke="#3FB8C5"/>
  <text x="112" y="202" fill="#E7EDF3" font-family="IBM Plex Mono" font-size="14">deco_time_min / bottom_time_min</text>
  <text x="96" y="236" fill="#A7B3BF" font-family="IBM Plex Sans" font-size="11">Scope: Dive</text>
  <text x="96" y="256" fill="#A7B3BF" font-family="IBM Plex Sans" font-size="11">Preview: 0.27</text>

  <rect x="608" y="128" width="520" height="220" rx="6" fill="#1D242B"/>
  <text x="632" y="160" fill="#A7B3BF" font-family="IBM Plex Sans" font-size="12">Variables</text>
  <text x="632" y="188" fill="#E7EDF3" font-family="IBM Plex Mono" font-size="12">max_depth_m</text>
  <text x="632" y="208" fill="#E7EDF3" font-family="IBM Plex Mono" font-size="12">bottom_time_min</text>
  <text x="632" y="228" fill="#E7EDF3" font-family="IBM Plex Mono" font-size="12">deco_time_min</text>
  <text x="632" y="248" fill="#E7EDF3" font-family="IBM Plex Mono" font-size="12">otu</text>
  <text x="632" y="268" fill="#E7EDF3" font-family="IBM Plex Mono" font-size="12">cns_percent</text>

  <rect x="72" y="368" width="1056" height="220" rx="6" fill="#1D242B"/>
  <text x="96" y="400" fill="#A7B3BF" font-family="IBM Plex Sans" font-size="12">Apply To</text>
  <rect x="96" y="416" width="220" height="32" rx="6" fill="#151B20" stroke="#3FB8C5"/>
  <text x="112" y="438" fill="#3FB8C5" font-family="IBM Plex Sans" font-size="12">All Dives</text>
  <rect x="324" y="416" width="260" height="32" rx="6" fill="#151B20"/>
  <text x="340" y="438" fill="#A7B3BF" font-family="IBM Plex Sans" font-size="12">Filter: is_ccr and deco_time_min > 0</text>

  <rect x="72" y="604" width="520" height="120" rx="6" fill="#1D242B"/>
  <text x="96" y="636" fill="#A7B3BF" font-family="IBM Plex Sans" font-size="12">Column Preview</text>
  <text x="96" y="662" fill="#E7EDF3" font-family="IBM Plex Sans" font-size="12">Barkley Sound · 0.27</text>
  <text x="96" y="682" fill="#E7EDF3" font-family="IBM Plex Sans" font-size="12">Tahoe · 0.00</text>

  <rect x="608" y="604" width="520" height="120" rx="6" fill="#1D242B"/>
  <text x="632" y="636" fill="#A7B3BF" font-family="IBM Plex Sans" font-size="12">Actions</text>
  <rect x="632" y="652" width="120" height="32" rx="6" fill="#151B20" stroke="#3FB8C5"/>
  <text x="652" y="674" fill="#3FB8C5" font-family="IBM Plex Sans" font-size="12">Validate</text>
  <rect x="760" y="652" width="120" height="32" rx="6" fill="#151B20"/>
  <text x="790" y="674" fill="#A7B3BF" font-family="IBM Plex Sans" font-size="12">Save</text>
</svg>
